<svg xmlns="http://www.w3.org/2000/svg" viewBox="0 0 245 317" role="img" aria-label="Blue geometric logo">
  <title>Blue Geometric Logo</title>
  <g fill="#004FC4" fill-rule="evenodd">
    <path d="M 55 15 L 44 26 L 17 71 L 16 87 L 50 146 L 58 150 L 94 150 L 94 143 L 62 86 L 62 79 L 95 16 Z"/>
    <path d="M 117 15 L 111 19 L 81 71 L 79 86 L 111 144 L 125 150 L 137 140 L 164 93 L 166 76 L 134 21 L 127 15 Z"/>
    <path d="M 150 15 L 180 72 L 182 86 L 149 149 L 188 150 L 198 143 L 229 88 L 230 77 L 194 18 L 188 15 Z"/>
    <path d="M 53 167 L 18 223 L 15 232 L 17 242 L 51 298 L 63 302 L 91 302 L 94 295 L 67 249 L 63 228 L 95 167 Z"/>
    <path d="M 151 166 L 151 173 L 180 222 L 182 236 L 149 301 L 189 301 L 200 292 L 228 242 L 229 229 L 193 168 Z"/>
    <path d="M 121 166 L 112 170 L 79 227 L 79 238 L 111 295 L 119 301 L 127 301 L 137 291 L 163 246 L 166 230 L 134 172 Z"/>
  </g>
</svg>
